ad feedback

While Jo (Roberts) is chained down in a dead end supermarket job, her friends are all out on their own separate adventures: Cassandra (Egerton) is jetting off to New York to meet her Internet boyfriend; Kerrys (Warren-Markland) is on a one woman crusade fighting for female liberation and Shannon (Lovibond) is on a one way trip to meet her maker. But a chance encounter with some diamond thieves sends their separate worlds on a collision course with not only each other, but fate itself. These 4 girls are about to have 3 days they will never forget, spanning to 2 cities. That is ... if they survive.








Screens:
 
http://leetleech.org/images/78591665139811670423.jpg







Video

Codec ID/Hint : XviD
Duration : 1h 51mn
Bit rate : 760 Kbps
Width : 656 pixels
Height : 272 pixels
Display aspect ratio : 2.40:1
Frame rate : 25.000 fps
Color space : YUV
Chroma subsampling : 4:2:0
Bit depth : 8 bits
Scan type : Progressive
Bits/(Pixel*Frame) : 0.170
Stream size : 608 MiB (87%)
Writing library : XviD 57


Codec ID/Hint : MP3
Duration : 1h 51mn
Bit rate mode : Variable
Bit rate : 102 Kbps
Nominal bit rate : 112 Kbps
Channel(s) : 2 channels
Sampling rate : 48.0 KHz
Stream size : 81.7 MiB (12%)
Alignment : Aligned on interleaves
Interleave, duration : 24 ms (0.60 video frame)
Interleave, preload duration : 512 ms
Writing library : LAME3.97





================================== 
http://thepiratebay.org/user/hiest
==================================





IMDB 
http://www.imdb.com/title/tt1514041/